<?xml version="1.0" encoding="UTF-8" standalone="no"?>
<!-- Created with Inkscape (http://www.inkscape.org/) -->
<svg
   xmlns:svg="http://www.w3.org/2000/svg"
   xmlns="http://www.w3.org/2000/svg"
   xmlns:xlink="http://www.w3.org/1999/xlink"
   version="1.0"
   width="174.65562"
   height="254.31812"
   id="svg2">
  <defs
     id="defs4">
    <radialGradient
       cx="351.5141"
       cy="399.4982"
       r="228.10156"
       fx="351.5141"
       fy="399.4982"
       id="radialGradient7608"
       xlink:href="#linearGradient6410"
       gradientUnits="userSpaceOnUse"
       gradientTransform="matrix(0.163692,1.170831,-1.185564,0.165752,578.0581,17.53552)"
       spreadMethod="pad" />
    <linearGradient
       id="linearGradient7610">
      <stop
         style="stop-color:#ffffff;stop-opacity:0.58762884"
         offset="0"
         id="stop7612" />
      <stop
         style="stop-color:#ffffff;stop-opacity:0.28865978"
         offset="1"
         id="stop7614" />
    </linearGradient>
    <linearGradient
       id="linearGradient6410">
      <stop
         style="stop-color:#ffffff;stop-opacity:0.58762884"
         offset="0"
         id="stop6412" />
      <stop
         style="stop-color:#ffffff;stop-opacity:0.28865978"
         offset="1"
         id="stop6414" />
    </linearGradient>
    <radialGradient
       cx="351.5141"
       cy="399.4982"
       r="228.10156"
       fx="351.5141"
       fy="399.4982"
       id="radialGradient6416"
       xlink:href="#linearGradient6410"
       gradientUnits="userSpaceOnUse"
       gradientTransform="matrix(0.163692,1.170831,-1.185564,0.165752,578.0581,17.53552)"
       spreadMethod="pad" />
  </defs>
  <g
     transform="matrix(0.212108,-0.212108,0.212108,0.212108,155.8781,-422.68941)"
     style="font-size:8.03960037px;fill:#ffff00;fill-opacity:1;fill-rule:nonzero;stroke:#000000;stroke-width:0;stroke-miterlimit:4;stroke-opacity:1;display:inline;font-family:Helvetica"
     id="g4729" />
  <g
     transform="matrix(0.212108,-0.212108,0.212108,0.212108,305.2303,-273.33725)"
     style="font-size:8.03960037px;fill:#ffff00;fill-opacity:1;fill-rule:nonzero;stroke:#000000;stroke-width:0;stroke-miterlimit:4;stroke-opacity:1;display:inline;font-family:Helvetica"
     id="g4731" />
  <g
     transform="translate(429.6072,-195.452)"
     style="display:inline"
     id="layer2" />
  <path
     d="M 166.866,189.47008 C 139.25033,286.91415 -39.204373,279.74848 9.2485059,120.2745 C 11.570344,131.00962 16.908415,127.72288 22.155749,138.68101 C 8.8109456,109.37496 25.597234,105.51451 28.315836,89.861269 C 31.327236,100.04858 22.977909,109.91471 32.422548,121.61395 C 34.604302,70.351427 47.483468,91.279371 48.849412,40.644644 C 48.695495,52.820613 55.437209,63.131986 59.11619,68.031319 C 54.887756,23.902254 86.862146,23.874504 94.84461,0.9538154 C 91.201699,21.346207 79.324236,28.807716 88.273868,48.58281 C 94.219268,43.290691 94.117401,37.998587 93.612599,32.706468 C 104.16074,43.158385 98.273069,52.022677 102.23669,59.299344 C 113.24264,54.731208 114.27874,49.648144 114.13686,43.65355 C 143.73364,70.471383 107.3821,75.034778 120.31089,90.271237 C 127.07707,90.092037 132.38517,82.2786 133.44773,75.572567 C 143.6263,92.805597 115.95713,96.790938 127.28766,110.89743 C 137.55421,104.88714 139.61004,100.01051 142.48252,95.021092 C 158.69503,117.1287 171.97576,139.34531 160.14137,162.49551 C 164.65875,162.67808 169.17615,157.08279 173.69353,152.1759 C 174.07624,173.1276 161.1411,188.18788 143.30386,206.15543 C 154.99005,205.84102 163.122,194.52739 166.866,189.47008 z "
     style="fill:#ff0000;fill-opacity:1;fill-rule:evenodd;stroke:#ff0000;stroke-width:1;stroke-linecap:butt;stroke-linejoin:miter;stroke-miterlimit:4;stroke-dasharray:none;stroke-opacity:1"
     id="path3380" />
</svg>
